<svg xmlns="http://www.w3.org/2000/svg" xmlns:xlink="http://www.w3.org/1999/xlink" xml:space="preserve" style="enable-background:new 0 0 494.7 491.7" viewBox="0 0 494.7 491.7"><style>.st0{clip-path:url(#SVGID_00000104707057195570882810000001969307909118289598_)}.st1{fill-rule:evenodd;clip-rule:evenodd;fill:url(#SVGID_00000068644952782715268260000006280222720820970140_)}.st2{clip-path:url(#SVGID_00000085964532178602299140000007456367618149848738_)}.st3{fill-rule:evenodd;clip-rule:evenodd;fill:url(#SVGID_00000157281300256630186830000014685387070872201648_)}.st4{clip-path:url(#SVGID_00000181805086289971706920000008974427832147524995_)}.st5{fill-rule:evenodd;clip-rule:evenodd;fill:url(#SVGID_00000027587868196082597660000017925100299635195031_)}.st6{clip-path:url(#SVGID_00000163032874161982333540000005625629087763241402_)}.st10,.st7,.st8,.st9{fill-rule:evenodd;clip-rule:evenodd;fill:url(#SVGID_00000172405165649187962650000006822901891471854464_)}.st10,.st8,.st9{fill:url(#SVGID_00000089548888416165015310000017143881864348017553_)}.st10,.st9{fill:url(#SVGID_00000093138923396882340600000000459700633036556959_)}.st10{fill:url(#SVGID_00000021829839371500912930000004719690678309743251_)}.st11{clip-path:url(#SVGID_00000134222277388481995830000011891864220914397847_)}.st12,.st13,.st14{fill-rule:evenodd;clip-rule:evenodd;fill:url(#SVGID_00000166660593821819615690000003372550033337604994_)}.st13,.st14{fill:url(#SVGID_00000054257348704749393620000009509573032703209608_)}.st14{fill:url(#SVGID_00000052796370773616764020000002968722515309092778_)}.st15{clip-path:url(#SVGID_00000131328689428806317700000004786784069782792872_)}.st16{fill-rule:evenodd;clip-rule:evenodd;fill:url(#SVGID_00000101801931432673018900000007499476909723089077_)}</style><g xmlns:xodm="http://www.corel.com/coreldraw/odm/2003" id="Layer_1"><g id="Capa_x0020_1"><g id="SEPLAN_AZUL_Degradado_Sombra.cdr"><defs><path id="SVGID_1_" d="M0 0h437.3v491.7H0z"/></defs><clipPath id="SVGID_00000116202832508168474490000008234827210102077313_"><use xlink:href="#SVGID_1_" style="overflow:visible"/></clipPath><linearGradient id="SVGID_00000110443625223172098140000016106367903930909339_" x1="25504.719" x2="37522.871" y1="-18825.641" y2="-18988.611" gradientTransform="matrix(.02775 0 0 -.02775 -692.242 -271.16)" gradientUnits="userSpaceOnUse"><stop offset="0" style="stop-color:#646464"/><stop offset="1" style="stop-color:#fefefe"/></linearGradient><path d="M213.6 253.9 351.1 417c-86.9 73-215.9 65.4-293.5-17.5-80.6-86-76.1-220.9 10.1-301.4C151.8 19.7 283 21.8 364.5 103L213.6 253.9z" style="fill-rule:evenodd;clip-rule:evenodd;fill:url(#SVGID_00000110443625223172098140000016106367903930909339_)"/><defs><path id="SVGID_00000132807170185387799300000006645256983237400208_" d="M231.9 69.8h262.8v346H231.9v-346z"/></defs><clipPath id="SVGID_00000065044561313503696050000013876242145996167849_"><use xlink:href="#SVGID_00000132807170185387799300000006645256983237400208_" style="overflow:visible"/></clipPath><linearGradient id="SVGID_00000098934886635889729110000017613964555143830149_" x1="41265.684" x2="33372.914" y1="-18969.379" y2="-18969.4" gradientTransform="matrix(.02775 0 0 -.02775 -692.242 -271.16)" gradientUnits="userSpaceOnUse"><stop offset="0" style="stop-color:#646464"/><stop offset="1" style="stop-color:#fefefe"/></linearGradient><path d="m233.9 242.7 167.6-140.8c49.7 58.9 64.6 139.6 39.4 212.3-12.7 36.6-34.9 69.2-64.4 94.4L233.9 242.7z" style="fill-rule:evenodd;clip-rule:evenodd;fill:url(#SVGID_00000098934886635889729110000017613964555143830149_)"/><defs><path id="SVGID_00000111898620583487673800000006549295510154930345_" d="M42 88.2h335.3l-.6 300.6H41.3L42 88.2z"/></defs><clipPath id="SVGID_00000168825384635730898770000012837120710986515884_"><use xlink:href="#SVGID_00000111898620583487673800000006549295510154930345_" style="overflow:visible"/></clipPath><linearGradient id="SVGID_00000117641763276405738730000018064059698708365696_" x1="32478.635" x2="32478.635" y1="-13526.85" y2="-22470.568" gradientTransform="matrix(.02775 0 0 -.02775 -692.242 -271.16)" gradientUnits="userSpaceOnUse"><stop offset="0" style="stop-color:#464646"/><stop offset="1" style="stop-color:#fefefe"/></linearGradient><path d="m209 252.6-87.1 116.7c-63.3-47.1-77.5-135.9-32.2-200.4 46.3-65.8 137.2-81.7 203.1-35.5s81.8 137 35.5 202.8c-7.3 10.3-15.9 19.7-25.6 27.8L209 252.6z" style="fill-rule:evenodd;clip-rule:evenodd;fill:url(#SVGID_00000117641763276405738730000018064059698708365696_)"/><defs><path id="SVGID_00000030472461237223851360000010052579225898334374_" d="M105 237.6h224.1v192.7H105V237.6z"/></defs><clipPath id="SVGID_00000119113524983594909390000014984401366719394690_"><use xlink:href="#SVGID_00000030472461237223851360000010052579225898334374_" style="overflow:visible"/></clipPath><linearGradient id="SVGID_00000034077056270723208390000002825448528381925047_" x1="32767.227" x2="32767.217" y1="-21218.219" y2="-17050.279" gradientTransform="matrix(.02775 0 0 -.02775 -692.242 -271.16)" gradientUnits="userSpaceOnUse"><stop offset="0" style="stop-color:#505050"/><stop offset="1" style="stop-color:#fefefe"/></linearGradient><path d="m211.5 259.8 92.8 115.7c-50.2 40.2-120.7 43.4-174.4 8.1l81.6-123.8z" style="fill-rule:evenodd;clip-rule:evenodd;fill:url(#SVGID_00000034077056270723208390000002825448528381925047_)"/><linearGradient id="SVGID_00000173158385703253842050000001260620237870953652_" x1="31781.021" x2="33195.5" y1="-16576.941" y2="-18397.801" gradientTransform="matrix(.02775 0 0 -.02775 -692.242 -271.16)" gradientUnits="userSpaceOnUse"><stop offset="0" style="stop-color:#646464"/><stop offset="1" style="stop-color:#fefefe"/></linearGradient><path d="m236.3 248.2-4.3-4.6-51.4-65.7 1.1.4z" style="fill-rule:evenodd;clip-rule:evenodd;fill:url(#SVGID_00000173158385703253842050000001260620237870953652_)"/><linearGradient id="SVGID_00000065755107718977002060000014192365246245379478_" x1="31602.67" x2="32629.66" y1="-15623.266" y2="-16072.166" gradientTransform="matrix(.02775 0 0 -.02775 -692.242 -271.16)" gradientUnits="userSpaceOnUse"><stop offset="0" style="stop-color:#646464"/><stop offset="1" style="stop-color:#fefefe"/></linearGradient><path d="m181.7 178.3-1.1-.4 3.1-2.3 3.1-2.1 3.2-2 3.3-1.8 3.4-1.6 3.3-1.5 3.5-1.3 3.5-1.2 3.5-1 3.5-.8 3.6-.7 3.5-.6-3.8.7-3.8.9-3.7 1-3.7 1.3-3.7 1.4-3.6 1.6-3.6 1.7-3.5 1.9-3.4 2.1-3.3 2.3z" style="fill-rule:evenodd;clip-rule:evenodd;fill:url(#SVGID_00000065755107718977002060000014192365246245379478_)"/><linearGradient id="SVGID_00000092456273793828021960000007713204013937979549_" x1="31943.047" x2="33224.027" y1="-19034.781" y2="-21055.74" gradientTransform="matrix(.02775 0 0 -.02775 -692.242 -271.16)" gradientUnits="userSpaceOnUse"><stop offset="0" style="stop-color:#646464"/><stop offset="1" style="stop-color:#fefefe"/></linearGradient><path d="m187.3 321.6-1.4-9 46.1-69 4.3 4.6z" style="fill-rule:evenodd;clip-rule:evenodd;fill:url(#SVGID_00000092456273793828021960000007713204013937979549_)"/><defs><path id="SVGID_00000018949373976620141740000002985384424497744011_" d="M160.2 140.5h186.2v215.3H160.2V140.5z"/></defs><clipPath id="SVGID_00000144308658210734650040000016762480754613589384_"><use xlink:href="#SVGID_00000018949373976620141740000002985384424497744011_" style="overflow:visible"/></clipPath><linearGradient id="SVGID_00000035510469318867165520000010588895538351577498_" x1="34073.508" x2="34073.508" y1="-21790.769" y2="-15417.07" gradientTransform="matrix(.02775 0 0 -.02775 -692.242 -271.16)" gradientUnits="userSpaceOnUse"><stop offset="0" style="stop-color:#646464"/><stop offset="1" style="stop-color:#fefefe"/></linearGradient><path d="m236.3 248.2-54.6-69.9 3.3-2.4 3.3-2.3 3.4-2.1 3.5-1.9 3.6-1.7 3.6-1.6 3.7-1.4 3.7-1.3 3.7-1 3.8-.9 3.8-.7 3.8-.6 3.8-.4 3.9-.2 3.8-.1 3.9.1 3.8.3 3.9.4 3.8.6 3.8.8 3.7.9 3.7 1.1 3.7 1.3 3.6 1.4 3.6 1.6 3.5 1.8 3.5 1.9 3.4 2.1 3.3 2.2 3.2 2.4 3.1 2.6 3 2.7 3.3 3.2 3 3.4 2.9 3.4 2.6 3.6 2.5 3.6 2.2 3.8 2.1 3.8 1.8 3.9 1.7 4 1.4 4 1.3 4.1 1 4.2.8 4.1.7 4.2.4 4.3.3 4.2v4.2l-.2 4.3-.3 4.2-.6 4.2-.8 4.2-1 4.2-1.2 4.1-1.4 4-1.6 4-1.8 4-2 3.8-2.2 3.8-2.4 3.7-2.6 3.6-2.8 3.5-3.1 3.4-2.8 2.9-2.9 2.7-3 2.5-3.2 2.4-3.2 2.3-3.2 2.1-3.4 1.9-3.4 1.8-3.5 1.6-3.6 1.5-3.6 1.3-3.6 1.1-3.7 1-3.7.9-3.8.6-3.8.5-3.8.4-3.8.2h-3.8l-3.8-.2-3.8-.3-3.8-.5-3.8-.6-3.8-.8-3.7-1-3.8-1.1-3.6-1.4-3.7-1.4-3.6-1.7-3.5-1.8-3.5-2-3.4-2.2z" style="fill-rule:evenodd;clip-rule:evenodd;fill:url(#SVGID_00000035510469318867165520000010588895538351577498_)"/><linearGradient id="SVGID_00000047761505680631871000000010426904606551576734_" x1="30801.486" x2="31822.637" y1="-19639.162" y2="-23813.982" gradientTransform="matrix(.02775 0 0 -.02775 -692.242 -271.16)" gradientUnits="userSpaceOnUse"><stop offset="0" style="stop-color:#646464"/><stop offset="1" style="stop-color:#fefefe"/></linearGradient><path d="m188.9 251.7 5.8.1-41 59.3-16.1 14.7z" style="fill-rule:evenodd;clip-rule:evenodd;fill:url(#SVGID_00000047761505680631871000000010426904606551576734_)"/><linearGradient id="SVGID_00000174561825514174842180000009304968128443983530_" x1="30704.705" x2="31806.295" y1="-17031.396" y2="-21024.275" gradientTransform="matrix(.02775 0 0 -.02775 -692.242 -271.16)" gradientUnits="userSpaceOnUse"><stop offset="0" style="stop-color:#646464"/><stop offset="1" style="stop-color:#fefefe"/></linearGradient><path d="m133.1 180.9 17 14.2 44.6 56.7-5.8-.1z" style="fill-rule:evenodd;clip-rule:evenodd;fill:url(#SVGID_00000174561825514174842180000009304968128443983530_)"/><defs><path id="SVGID_00000039092409321805801680000009048779340468576143_" d="M85.1 168.8h117.3v169.1H85.1V168.8z"/></defs><clipPath id="SVGID_00000103243323584745547810000004316583597280308152_"><use xlink:href="#SVGID_00000039092409321805801680000009048779340468576143_" style="overflow:visible"/></clipPath><linearGradient id="SVGID_00000108273421017081229140000001373735583463287442_" x1="28957.506" x2="34546.105" y1="-18900.889" y2="-18900.889" gradientTransform="matrix(.02775 0 0 -.02775 -692.242 -271.16)" gradientUnits="userSpaceOnUse"><stop offset="0" style="stop-color:#646464"/><stop offset="1" style="stop-color:#fefefe"/></linearGradient><path d="m188.9 251.7-51.2 74.1c-36-24.8-49-71.9-30.8-111.7 6-13 15-24.4 26.3-33.3l55.7 70.9z" style="fill-rule:evenodd;clip-rule:evenodd;fill:url(#SVGID_00000108273421017081229140000001373735583463287442_)"/></g></g></g></svg>