<?xml version="1.0" encoding="UTF-8"?>
<!DOCTYPE svg PUBLIC "-//W3C//DTD SVG 1.1//EN" "http://www.w3.org/Graphics/SVG/1.1/DTD/svg11.dtd">
<!-- Creator: CorelDRAW 2020 (64-Bit) -->
<svg xmlns="http://www.w3.org/2000/svg" xml:space="preserve" width="174.523mm" height="173.463mm" version="1.1" style="shape-rendering:geometricPrecision; text-rendering:geometricPrecision; image-rendering:optimizeQuality; fill-rule:evenodd; clip-rule:evenodd"
viewBox="0 0 17827.37 17719.03"
 xmlns:xlink="http://www.w3.org/1999/xlink"
 xmlns:xodm="http://www.corel.com/coreldraw/odm/2003">
 <defs>
  <style type="text/css">
   <![CDATA[
    .fil1 {fill:url(#id6)}
    .fil0 {fill:url(#id7)}
    .fil8 {fill:url(#id8)}
    .fil5 {fill:url(#id9)}
    .fil4 {fill:url(#id10)}
    .fil2 {fill:url(#id11)}
    .fil3 {fill:url(#id12)}
    .fil6 {fill:url(#id13)}
    .fil9 {fill:url(#id14)}
    .fil10 {fill:url(#id15)}
    .fil7 {fill:url(#id16)}
   ]]>
  </style>
     <clipPath id="id0">
      <path d="M-0 0l15760.07 0 0 17719.03 -15760.07 0 0 -17719.03z"/>
     </clipPath>
     <clipPath id="id1">
      <path d="M8356.05 2516.26l9471.32 0 0 12467.94 -9471.32 0 0 -12467.94z"/>
     </clipPath>
     <clipPath id="id2">
      <path d="M1513.05 3179.85l12084.72 0 -23.91 10832.31 -12084.72 0 23.91 -10832.31z"/>
     </clipPath>
     <clipPath id="id3">
      <path d="M3783.79 8561.5l8075.72 0 0 6944.07 -8075.72 0 0 -6944.07z"/>
     </clipPath>
     <clipPath id="id4">
      <path d="M5773.91 5062.35l6708.02 0 0 7759.03 -6708.02 0 0 -7759.03z"/>
     </clipPath>
     <clipPath id="id5">
      <path d="M3067.62 6081.33l4226.24 0 0 6096.06 -4226.24 0 0 -6096.06z"/>
     </clipPath>
  <linearGradient id="id6" gradientUnits="userSpaceOnUse" x1="16319.58" y1="9197.8" x2="8427.3" y2="9197.82">
   <stop offset="0" style="stop-opacity:1; stop-color:#336699"/>
   <stop offset="1" style="stop-opacity:1; stop-color:#FEFEFE"/>
  </linearGradient>
  <linearGradient id="id7" gradientUnits="userSpaceOnUse" xlink:href="#id6" x1="558.92" y1="9069.79" x2="12577.07" y2="9232.76">
  </linearGradient>
  <linearGradient id="id8" gradientUnits="userSpaceOnUse" xlink:href="#id6" x1="5503.62" y1="9953.8" x2="6524.77" y2="14128.62">
  </linearGradient>
  <linearGradient id="id9" gradientUnits="userSpaceOnUse" xlink:href="#id6" x1="6623.04" y1="5929.62" x2="7650.03" y2="6378.52">
  </linearGradient>
  <linearGradient id="id10" gradientUnits="userSpaceOnUse" xlink:href="#id6" x1="6666.44" y1="6936.69" x2="8080.92" y2="8757.55">
  </linearGradient>
  <linearGradient id="id11" gradientUnits="userSpaceOnUse" xlink:href="#id6" x1="6856.91" y1="3755.32" x2="6856.91" y2="12699.04">
  </linearGradient>
  <linearGradient id="id12" gradientUnits="userSpaceOnUse" xlink:href="#id6" x1="7620.95" y1="11446.69" x2="7620.94" y2="7278.75">
  </linearGradient>
  <linearGradient id="id13" gradientUnits="userSpaceOnUse" xlink:href="#id6" x1="6841.1" y1="9362.36" x2="8122.08" y2="11383.32">
  </linearGradient>
  <linearGradient id="id14" gradientUnits="userSpaceOnUse" xlink:href="#id6" x1="5384.5" y1="7363.22" x2="6486.09" y2="11356.1">
  </linearGradient>
  <linearGradient id="id15" gradientUnits="userSpaceOnUse" xlink:href="#id6" x1="4011.92" y1="9945.23" x2="9600.52" y2="9945.23">
  </linearGradient>
  <linearGradient id="id16" gradientUnits="userSpaceOnUse" xlink:href="#id6" x1="9043.31" y1="12019.24" x2="9043.31" y2="5645.24">
  </linearGradient>
 </defs>
 <g id="Capa_x0020_1">
  <metadata id="CorelCorpID_0Corel-Layer"/>
  <g id="SEPLAN_AZUL_Degradado_Sombra.cdr">
   <g>
    <g style="clip-path:url(#id0)">
     <image x="-0" y="0" width="15760.07" height="17719.03" xlink:href="Seplan_Logo_Images\Seplan_Logo_ImgID1.png"/>
    </g>
   </g>
   <path class="fil0" d="M7696.7 9150.88l4955.82 5878.91c-3132.15,2632.22 -7779.97,2355.38 -10576.5,-629.95 -2903.38,-3099.43 -2740.59,-7962.05 363.62,-10860.97 3029.3,-2828.96 7759.02,-2752.03 10694.42,173.95l-5437.36 5438.06z"/>
   <g>
    <g style="clip-path:url(#id1)">
     <image x="8356.05" y="2516.26" width="9471.32" height="12467.94" xlink:href="Seplan_Logo_Images\Seplan_Logo_ImgID2.png"/>
    </g>
   </g>
   <path class="fil1" d="M8427.3 8744.16l6039.11 -5073.82c1789.44,2123.31 2328.48,5029.83 1419.15,7652.12 -457.57,1319.55 -1258.1,2494.01 -2319.65,3403.16l-5138.61 -5981.46z"/>
   <g>
    <g style="clip-path:url(#id2)">
     <image x="1489.14" y="3179.85" width="12108.64" height="10832.31" xlink:href="Seplan_Logo_Images\Seplan_Logo_ImgID3.png"/>
    </g>
   </g>
   <path class="fil2" d="M7533 9103.1l-3140.05 4205.71c-2279.92,-1696.98 -2793.73,-4897.14 -1159.34,-7220.64 1667.67,-2370.83 4944.48,-2942.93 7318.98,-1277.83 2374.49,1665.09 2947.47,4936.86 1279.81,7307.69 -262.31,372.92 -572.19,710.11 -921.77,1003.08l-3377.62 -4018.01z"/>
   <g>
    <g style="clip-path:url(#id3)">
     <image x="3783.79" y="8561.5" width="8075.72" height="6944.07" xlink:href="Seplan_Logo_Images\Seplan_Logo_ImgID4.png"/>
    </g>
   </g>
   <path class="fil3" d="M7620.95 9362.74l3343.23 4170.1c-1810.37,1446.91 -4348.21,1564.57 -6285.07,291.36l2941.84 -4461.46z"/>
   <g>
    <polygon class="fil4" points="8517.03,8943.31 8359.04,8778.66 6508.04,6410.78 6547.91,6424.32 "/>
    <polygon class="fil5" points="6547.91,6424.32 6508.04,6410.78 6618.8,6328.65 6732.22,6252.35 6848.2,6181.83 6966.36,6117.01 7086.69,6057.96 7208.89,6004.67 7332.84,5957.06 7458.27,5915.25 7585,5879.1 7712.87,5848.64 7841.65,5823.9 7966.67,5799.97 7829.68,5826.3 7693.61,5858.68 7558.82,5897.14 7425.39,5941.66 7293.51,5992.25 7163.52,6049 7035.52,6111.78 6909.73,6180.73 6786.42,6255.81 6665.77,6336.98 "/>
    <polygon class="fil6" points="6749.59,11589.51 6697.65,11266.17 8359.04,8778.66 8517.03,8943.31 "/>
   </g>
   <g>
    <g style="clip-path:url(#id4)">
     <image x="5773.91" y="5062.35" width="6708.02" height="7759.03" xlink:href="Seplan_Logo_Images\Seplan_Logo_ImgID5.png"/>
    </g>
   </g>
   <polygon class="fil7" points="8517.03,8943.31 6547.91,6424.32 6665.77,6336.98 6786.42,6255.81 6909.73,6180.73 7035.52,6111.78 7163.52,6049 7293.51,5992.25 7425.39,5941.66 7558.82,5897.14 7693.61,5858.68 7829.68,5826.3 7966.67,5799.97 8104.41,5779.69 8242.79,5765.44 8381.46,5757.22 8520.28,5755.02 8659.04,5758.84 8797.59,5768.61 8935.61,5784.35 9072.9,5806.13 9209.33,5833.86 9344.64,5867.48 9478.67,5907.07 9611.15,5952.64 9741.92,6004.08 9870.76,6061.41 9997.41,6124.66 10121.74,6193.83 10243.49,6268.82 10362.5,6349.71 10478.51,6436.48 10591.34,6529.01 10700.74,6627.45 10817.66,6743.23 10927.42,6863.42 11030.01,6987.74 11125.45,7115.99 11213.69,7247.84 11294.66,7382.94 11368.47,7521.11 11435.05,7662.05 11494.35,7805.39 11546.51,7950.9 11591.35,8098.35 11628.98,8247.44 11659.36,8397.78 11682.37,8549.23 11698.19,8701.45 11706.68,8854.12 11707.93,9007 11701.84,9159.74 11688.43,9312.18 11667.7,9463.96 11639.65,9614.79 11604.26,9764.42 11561.49,9912.54 11511.39,10058.93 11453.89,10203.17 11389.08,10345.14 11316.84,10484.47 11237.22,10620.83 11150.2,10754.06 11055.81,10883.83 10953.91,11009.8 10844.6,11131.77 10742.81,11234.97 10637.26,11332.66 10528.27,11424.85 10415.89,11511.44 10300.51,11592.49 10182.2,11667.94 10061.21,11737.72 9937.72,11801.9 9812,11860.4 9684.1,11913.23 9554.38,11960.31 9422.96,12001.66 9290.06,12037.28 9155.86,12067.11 9020.58,12091.11 8884.39,12109.3 8747.56,12121.66 8610.23,12128.1 8472.62,12128.72 8334.91,12123.37 8197.34,12112.1 8060.12,12094.84 7923.39,12071.6 7787.37,12042.38 7652.34,12007.1 7518.39,11965.81 7385.76,11918.39 7254.68,11864.91 7125.29,11805.26 6997.86,11739.56 6872.53,11667.6 6749.59,11589.51 "/>
   <g>
    <polygon class="fil8" points="6806.22,9069.77 7015.73,9072.53 5538.61,11209.51 4959.81,11741 "/>
    <polygon class="fil9" points="4797.85,6517.72 5409.04,7030.9 7015.73,9072.53 6806.22,9069.77 "/>
   </g>
   <g>
    <g style="clip-path:url(#id5)">
     <image x="3067.62" y="6081.33" width="4226.24" height="6096.06" xlink:href="Seplan_Logo_Images\Seplan_Logo_ImgID6.png"/>
    </g>
   </g>
   <path class="fil10" d="M6806.22 9069.77l-1846.42 2671.23c-1298.54,-894.82 -1766.01,-2591.47 -1108.62,-4023.54 215.48,-469.42 540.03,-880.71 946.67,-1199.74l2008.37 2552.05z"/>
  </g>
 </g>
</svg>
